<svg xmlns="http://www.w3.org/2000/svg" viewBox="0 0 64 64"><rect width="64" height="64" rx="8" fill="#fff"/><path fill="#b22234" d="M0 0h64v4.92H0zm0 9.85h64v4.92H0zm0 9.84h64v4.93H0zm0 9.85h64v4.92H0zm0 9.84h64v4.93H0zm0 9.85h64v4.92H0z"/><rect width="28" height="34.46" fill="#3c3b6e"/><g fill="#fff"><circle cx="4" cy="4" r="1.2"/><circle cx="10" cy="4" r="1.2"/><circle cx="16" cy="4" r="1.2"/><circle cx="22" cy="4" r="1.2"/><circle cx="7" cy="8.5" r="1.2"/><circle cx="13" cy="8.5" r="1.2"/><circle cx="19" cy="8.5" r="1.2"/><circle cx="25" cy="8.5" r="1.2"/><circle cx="4" cy="13" r="1.2"/><circle cx="10" cy="13" r="1.2"/><circle cx="16" cy="13" r="1.2"/><circle cx="22" cy="13" r="1.2"/><circle cx="7" cy="17.5" r="1.2"/><circle cx="13" cy="17.5" r="1.2"/><circle cx="19" cy="17.5" r="1.2"/><circle cx="25" cy="17.5" r="1.2"/><circle cx="4" cy="22" r="1.2"/><circle cx="10" cy="22" r="1.2"/><circle cx="16" cy="22" r="1.2"/><circle cx="22" cy="22" r="1.2"/><circle cx="7" cy="26.5" r="1.2"/><circle cx="13" cy="26.5" r="1.2"/><circle cx="19" cy="26.5" r="1.2"/><circle cx="25" cy="26.5" r="1.2"/><circle cx="4" cy="31" r="1.2"/><circle cx="10" cy="31" r="1.2"/><circle cx="16" cy="31" r="1.2"/><circle cx="22" cy="31" r="1.2"/></g></svg>